<svg width="90" height="90" viewBox="0 0 90 90" fill="none" xmlns="http://www.w3.org/2000/svg">
<path d="M71.089 41.766C68.183 44.672 65.89 47.954 65.993 49.058C65.993 49.058 65.993 49.058 65.993 50.08C65.993 64.737 54.071 76.658 39.421 76.658C24.767 76.658 12.846 64.737 12.846 50.08C12.846 35.433 24.77 23.515 39.421 23.515C40.525 23.515 40.525 23.515 40.525 23.515C41.709 23.636 45.047 21.365 47.945 18.468C50.841 15.571 49.191 12.06 44.277 10.666C44.277 10.666 44.277 10.666 39.421 10.666C17.684 10.666 -0.00299962 28.347 3.81645e-07 50.081C-0.00299962 71.821 17.681 89.508 39.421 89.508C61.155 89.508 78.842 71.82 78.838 50.08C78.842 45.299 78.842 45.299 78.842 45.299C77.484 40.45 73.995 38.86 71.089 41.766Z" fill="#5B6EF5"/>
<path d="M89.6598 7C89.6598 3.15 86.5098 0 82.6598 0H53.6247C49.7747 0 48.8527 2.227 51.5757 4.949L58.6387 12.011C61.3627 14.733 61.3627 19.187 58.6397 21.909L44.9797 35.57C42.2577 38.292 42.0747 42.564 44.5727 45.062C47.0717 47.561 51.3437 47.377 54.0657 44.655L67.7247 30.995C70.4477 28.273 74.8998 28.275 77.6198 31.001L84.7137 38.112C87.4327 40.838 89.6567 39.918 89.6567 36.068L89.6598 7Z" fill="#5B6EF5"/>
</svg>
